<svg xmlns="http://www.w3.org/2000/svg" xmlns:xlink="http://www.w3.org/1999/xlink" version="1.1" x="0px" y="0px" viewBox="0 0 96 120" style="enable-background:new 0 0 96 96;" xml:space="preserve"><style type="text/css">
	.st0{fill-rule:evenodd;clip-rule:evenodd;}
</style><path class="st0" d="M86.483,83.619c0.003,0.044,0.003,0.091,0,0.135c-0.156,1.996-2.115,3.177-4.487,3.435v0.742  c0,1.219-1.85,1.217-1.85,0v-0.734c-1.369-0.108-2.681-0.417-3.917-0.928c-0.472-0.197-0.695-0.737-0.501-1.209  c0.196-0.472,0.738-0.695,1.21-0.499c1.789,0.741,4.42,1.191,6.307,0.45c1.119-0.445,1.341-0.962,1.388-1.336  c-0.03-0.258-0.179-0.823-1.393-1.323c-1.725-0.681-2.966-0.069-4.965-0.894c-4.078-1.683-3.123-5.976,1.872-6.545v-0.747  c0-1.217,1.85-1.219,1.85,0v0.738c1.444,0.115,2.732,0.419,3.91,0.93c0.469,0.204,0.683,0.747,0.479,1.218  c-0.204,0.467-0.747,0.682-1.216,0.479c-1.67-0.726-4.321-1.174-6.197-0.448c-2.907,1.126-0.805,3.04,2.168,3.04  C83.533,80.122,86.324,81.243,86.483,83.619L86.483,83.619z M81.071,91.306c5.658,0,10.258-4.603,10.258-10.258  c0-5.656-4.601-10.257-10.258-10.257c-5.656,0-10.257,4.601-10.257,10.257C70.815,86.702,75.415,91.306,81.071,91.306L81.071,91.306  z M81.071,68.94c-6.675,0-12.106,5.432-12.106,12.107c0,6.677,5.432,12.108,12.106,12.108c6.677,0,12.108-5.432,12.108-12.108  C93.179,74.372,87.748,68.94,81.071,68.94L81.071,68.94z M21.017,10.089c-0.361-0.361-0.361-0.948,0-1.309  c0.361-0.36,0.948-0.36,1.308,0l5.637,5.638c0.583,0.582,0.165,1.578-0.654,1.578c-0.237,0-0.473-0.09-0.653-0.27L21.017,10.089  L21.017,10.089z M68.019,15.726c-0.362-0.361-0.362-0.948,0-1.308l5.636-5.638c0.859-0.859,2.172,0.446,1.308,1.309l-5.635,5.637  C68.967,16.085,68.381,16.087,68.019,15.726L68.019,15.726z M47.065,11.571V3.599c0-0.51,0.413-0.925,0.926-0.925  c0.51,0,0.925,0.415,0.925,0.925v7.972c0,0.51-0.415,0.925-0.925,0.925C47.479,12.496,47.065,12.081,47.065,11.571L47.065,11.571z   M42.97,28.066c0-2.768,2.252-5.021,5.022-5.021c2.767,0,5.019,2.253,5.019,5.021c0,2.767-2.252,5.019-5.019,5.019  C45.222,33.085,42.97,30.833,42.97,28.066L42.97,28.066z M54.86,28.066c0-3.789-3.082-6.871-6.869-6.871  c-3.79,0-6.872,3.082-6.872,6.871c0,3.789,3.082,6.869,6.872,6.869C51.778,34.935,54.86,31.855,54.86,28.066L54.86,28.066z   M47.991,19.865c-10.892,0-21.165,3.123-27.148,8.201c5.983,5.078,16.256,8.201,27.148,8.201c10.889,0,21.162-3.123,27.145-8.201  C69.153,22.988,58.882,19.865,47.991,19.865L47.991,19.865z M47.991,38.117c11.993,0,22.899-3.506,29.169-9.376  c0.387-0.366,0.389-0.985,0-1.35c-6.27-5.87-17.174-9.376-29.169-9.376c-11.998,0-22.903,3.506-29.17,9.376  c-0.391,0.368-0.391,0.982,0,1.35C25.089,34.611,35.995,38.117,47.991,38.117L47.991,38.117z M13.984,66.515V53.534  c0-0.511,0.412-0.925,0.925-0.925h32.157V40.213c0-1.218,1.851-1.218,1.851,0v12.395h32.155c0.513,0,0.925,0.414,0.925,0.925v12.981  c0,1.219-1.85,1.217-1.85,0V54.458h-31.23v12.057c0,1.218-1.851,1.218-1.851,0V54.458H15.834v12.057  C15.834,67.732,13.984,67.733,13.984,66.515L13.984,66.515z M22.926,79.415c0.244,1.135,0.241,2.301,0,3.436  c-0.083,0.392,0.097,0.794,0.443,0.994l1.437,0.83l-1.883,3.26l-1.438-0.83c-0.348-0.2-0.784-0.154-1.082,0.114  c-0.868,0.785-1.867,1.362-2.972,1.719c-0.381,0.124-0.64,0.479-0.64,0.881v1.658h-3.765v-1.658c0-0.401-0.258-0.756-0.64-0.881  c-1.107-0.357-2.106-0.934-2.973-1.719c-0.298-0.268-0.734-0.314-1.083-0.114l-1.437,0.83l-1.883-3.26l1.437-0.83  c0.348-0.2,0.526-0.601,0.442-0.994c-0.241-1.133-0.241-2.305,0-3.436c0.084-0.392-0.096-0.794-0.442-0.993l-1.437-0.829  l1.883-3.261l1.44,0.831c0.345,0.199,0.784,0.153,1.082-0.115c0.866-0.782,1.867-1.362,2.972-1.719  c0.381-0.122,0.64-0.479,0.64-0.879v-1.659h3.765v1.658c0,0.401,0.259,0.756,0.64,0.881c1.106,0.357,2.105,0.936,2.972,1.719  c0.298,0.268,0.734,0.314,1.082,0.115l1.438-0.831l1.883,3.261l-1.437,0.829C23.023,78.621,22.844,79.023,22.926,79.415  L22.926,79.415z M26.963,78.17c0.064-0.236,0.03-0.49-0.092-0.7l-2.808-4.863c-0.256-0.443-0.821-0.594-1.264-0.339l-1.676,0.968  c-0.756-0.598-1.589-1.078-2.483-1.435v-1.934c0-0.511-0.414-0.926-0.925-0.926h-5.614c-0.512,0-0.926,0.415-0.926,0.926v1.935  c-0.894,0.355-1.724,0.835-2.483,1.433l-1.676-0.968c-0.442-0.255-1.009-0.104-1.263,0.339l-2.809,4.863  c-0.255,0.442-0.101,1.008,0.339,1.263L4.959,79.7c-0.136,0.958-0.136,1.906,0,2.865l-1.677,0.969  c-0.441,0.255-0.593,0.821-0.339,1.263l2.809,4.862c0.255,0.442,0.821,0.593,1.263,0.338l1.676-0.968  c0.759,0.598,1.589,1.078,2.483,1.436V92.4c0,0.511,0.414,0.926,0.926,0.926h5.614c0.511,0,0.925-0.415,0.925-0.926v-1.933  c0.894-0.358,1.726-0.838,2.483-1.436l1.676,0.968c0.445,0.255,1.009,0.104,1.264-0.338l2.808-4.862  c0.253-0.44,0.107-1.007-0.338-1.263l-1.676-0.969c0.136-0.97,0.136-1.895,0-2.865l1.676-0.968  C26.745,78.608,26.9,78.407,26.963,78.17L26.963,78.17z M14.909,84.049c1.608,0,2.916-1.308,2.916-2.915  c0-1.61-1.308-2.918-2.916-2.918c-1.61,0-2.918,1.308-2.918,2.918C11.991,82.741,13.299,84.049,14.909,84.049L14.909,84.049z   M14.909,76.367c-2.629,0-4.768,2.139-4.768,4.768c0,2.627,2.139,4.765,4.768,4.765c2.627,0,4.765-2.138,4.765-4.765  C19.674,78.506,17.536,76.367,14.909,76.367L14.909,76.367z M59.022,89.731V67.44h-3.161v22.291H59.022L59.022,89.731z   M59.947,65.59h-5.011c-0.511,0-0.925,0.415-0.925,0.925v24.142c0,0.51,0.414,0.925,0.925,0.925h5.011  c0.511,0,0.926-0.415,0.926-0.925V66.515C60.873,66.005,60.458,65.59,59.947,65.59L59.947,65.59z M49.343,89.731h-3.162V73.856  h3.162V89.731L49.343,89.731z M50.268,72.005h-5.012c-0.511,0-0.925,0.415-0.925,0.926v17.725c0,0.51,0.414,0.925,0.925,0.925h5.012  c0.511,0,0.925-0.415,0.925-0.925V72.931C51.193,72.421,50.779,72.005,50.268,72.005L50.268,72.005z M39.664,89.731h-3.161v-9.138  h3.161V89.731L39.664,89.731z M40.589,78.741h-5.011c-0.511,0-0.926,0.415-0.926,0.926v10.989c0,0.51,0.415,0.925,0.926,0.925h5.011  c0.511,0,0.925-0.415,0.925-0.925V79.667C41.514,79.156,41.1,78.741,40.589,78.741z"/><text x="0" y="111" fill="#000000" font-size="5px" font-weight="bold" font-family="'Helvetica Neue', Helvetica, Arial-Unicode, Arial, Sans-serif">Created by diyah farida</text><text x="0" y="116" fill="#000000" font-size="5px" font-weight="bold" font-family="'Helvetica Neue', Helvetica, Arial-Unicode, Arial, Sans-serif">from the Noun Project</text></svg>